<svg width="460" height="250" viewBox="0 0 460 250" fill="none" xmlns="http://www.w3.org/2000/svg">
<mask id="mask0" mask-type="alpha" maskUnits="userSpaceOnUse" x="41" y="212" width="103" height="26">
<path d="M94.813 237.366C122.883 237.366 143.427 236.542 143.427 227.906C143.427 219.27 120.674 212.268 92.6042 212.268C64.5343 212.268 41.7812 219.27 41.7812 227.906C41.7812 236.542 66.7444 237.366 94.813 237.366Z" fill="white"/>
</mask>
<g mask="url(#mask0)">
<g filter="url(#filter0_f)">
<path fill-rule="evenodd" clip-rule="evenodd" d="M71.3556 237.284C100.253 237.284 104.212 233.99 104.212 230.779C104.212 227.569 79.6801 227.625 50.7827 227.625C21.8853 227.625 -2.64648 227.569 -2.64648 230.779C-2.64648 233.99 42.4595 237.284 71.3556 237.284Z" fill="#DCC5AF"/>
</g>
</g>
<mask id="mask1" mask-type="alpha" maskUnits="userSpaceOnUse" x="303" y="184" width="190" height="66">
<path d="M398.166 250C450.345 250 492.645 235.414 492.645 217.421C492.645 199.428 450.345 184.842 398.166 184.842C345.987 184.842 303.688 199.428 303.688 217.421C303.688 235.414 345.987 250 398.166 250Z" fill="white"/>
</mask>
<g mask="url(#mask1)">
<g filter="url(#filter1_f)">
<path d="M300.884 238.153C372.037 238.153 429.718 232.849 429.718 226.306C429.718 219.764 372.037 214.459 300.884 214.459C229.73 214.459 172.049 219.764 172.049 226.306C172.049 232.849 229.73 238.153 300.884 238.153Z" fill="#844C22" fill-opacity="0.277"/>
</g>
</g>
<path fill-rule="evenodd" clip-rule="evenodd" d="M323.469 108.602L457.453 109.191L358.292 209.708H224.43L323.469 108.602Z" fill="#F9D8A0" stroke="#844C22" stroke-width="0.00696056" stroke-linecap="round" stroke-linejoin="round"/>
<path fill-rule="evenodd" clip-rule="evenodd" d="M308.624 94.3408L444.584 95.0758L457.449 110.338L323.467 109.171L308.624 94.3408Z" fill="#F9D8A0" stroke="#844C22" stroke-width="0.00464037" stroke-linecap="round" stroke-linejoin="round"/>
<path fill-rule="evenodd" clip-rule="evenodd" d="M308.632 94.3418L323.475 109.172L223.207 209.754L208.798 195.659L308.632 94.3418Z" fill="#F9D8A0" stroke="#844C22" stroke-width="0.00464037" stroke-linecap="round" stroke-linejoin="round"/>
<path fill-rule="evenodd" clip-rule="evenodd" d="M444.545 94.8896L458.954 108.985L358.685 209.567L344.276 195.472L444.545 94.8896Z" fill="#C01515" stroke="#844C22" stroke-width="0.00464037" stroke-linecap="round" stroke-linejoin="round"/>
<path fill-rule="evenodd" clip-rule="evenodd" d="M133.584 134.38L125.138 137.37L124.057 152.735L132.674 148.96L133.584 134.38Z" fill="#D4162D" stroke="#844C22" stroke-width="0.00580046"/>
<path fill-rule="evenodd" clip-rule="evenodd" d="M128.313 209.364L136.966 85.5651H128.313L120.217 209.364H128.313Z" stroke="#844C22" stroke-width="0.00580046" stroke-linecap="round" stroke-linejoin="round"/>
<path fill-rule="evenodd" clip-rule="evenodd" d="M136.187 88.8547L128.068 92.2729L126.799 109.812L135.109 106.002L136.127 89.8099L136.187 88.8547Z" fill="#D4162D" stroke="#844C22" stroke-width="0.00580046"/>
<path opacity="0.579" d="M131.265 87.7589L125.428 179.455" stroke="white" stroke-width="0.00580046"/>
<mask id="mask2" mask-type="alpha" maskUnits="userSpaceOnUse" x="113" y="189" width="109" height="33">
<path d="M167.64 221.529C197.467 221.529 221.645 220.121 221.645 209.326C221.645 198.531 197.467 189.779 167.64 189.779C137.813 189.779 113.635 198.531 113.635 209.326C113.635 220.121 137.813 221.529 167.64 221.529Z" fill="white"/>
</mask>
<g mask="url(#mask2)">
<g filter="url(#filter2_f)">
<path fill-rule="evenodd" clip-rule="evenodd" d="M103.951 220.66C140.104 220.66 172.182 216.347 172.182 212.748C172.182 209.15 140.104 206.232 103.951 206.232C67.7978 206.232 38.4912 209.15 38.4912 212.748C38.4912 216.346 67.7991 220.66 103.951 220.66Z" fill="#844C22" fill-opacity="0.395"/>
</g>
</g>
<path d="M80.999 134.38H156.278" stroke="#844C22" stroke-width="0.00580046"/>
<path d="M84.29 124.509H153.023" stroke="white" stroke-width="0.00580046"/>
<path opacity="0.812" fill-rule="evenodd" clip-rule="evenodd" d="M87.5811 121.24C87.7127 121.224 87.8456 121.216 87.9772 121.216L87.5811 121.24ZM149.719 152.765L140.501 215.288C140.029 218.489 137.264 220.86 134.005 220.86H102.012C98.6943 220.86 95.8978 218.403 95.4964 215.132L87.5811 150.541C90.8298 145.294 96.8308 143.215 105.584 144.3C118.712 145.929 120.354 158.961 130.201 158.961C136.765 158.961 143.271 156.895 149.719 152.764V152.765Z" fill="#F6E7B5"/>
<path opacity="0.812" fill-rule="evenodd" clip-rule="evenodd" d="M146.222 164L139.954 214.692C139.482 217.892 136.718 220.264 133.459 220.264H101.467C98.1489 220.264 95.3523 217.805 94.9509 214.535L90.8721 183.889C91.1861 174.724 95.7198 170.684 104.473 171.77C117.602 173.399 117.537 164.83 127.384 164.83C133.949 164.83 140.228 164.554 146.222 164Z" fill="#FBC889"/>
<path fill-rule="evenodd" clip-rule="evenodd" d="M87.5811 121.239C87.7123 121.224 87.8449 121.216 87.9761 121.216L87.5811 121.239Z" fill="#F6E7B5"/>
<path d="M103.91 212.437H133.367M84.2569 121.216H153.02C153.884 121.216 154.713 121.559 155.324 122.17C155.935 122.781 156.278 123.61 156.278 124.474V134.426H151.369L139.958 213.368C139.733 214.919 138.958 216.337 137.774 217.362C136.59 218.388 135.076 218.952 133.51 218.952H101.591C99.9943 218.952 98.4528 218.366 97.2597 217.304C96.0667 216.242 95.3052 214.779 95.12 213.193L85.908 134.427H80.999V124.474C80.999 123.61 81.3423 122.781 81.9532 122.17C82.5642 121.559 83.3929 121.216 84.2569 121.216V121.216Z" stroke="#844C22" stroke-width="0.00580046" stroke-linecap="round" stroke-linejoin="round"/>
<path opacity="0.826" d="M89.7754 138.22L98.543 212.896C98.6362 213.689 99.0172 214.42 99.6137 214.95C100.21 215.48 100.981 215.773 101.779 215.773H119.628" stroke="white" stroke-width="0.00580046" stroke-linecap="round" stroke-linejoin="round"/>
<path d="M131.726 173.29C132.63 173.29 133.362 172.561 133.362 171.661C133.362 170.761 132.63 170.032 131.726 170.032C130.822 170.032 130.089 170.761 130.089 171.661C130.089 172.561 130.822 173.29 131.726 173.29Z" fill="white"/>
<path opacity="0.877" d="M115.272 176.582C116.175 176.582 116.908 175.853 116.908 174.953C116.908 174.054 116.175 173.324 115.272 173.324C114.368 173.324 113.635 174.054 113.635 174.953C113.635 175.853 114.368 176.582 115.272 176.582Z" fill="white"/>
<path d="M102.382 150.803C103.286 150.803 104.019 150.074 104.019 149.174C104.019 148.274 103.286 147.545 102.382 147.545C101.478 147.545 100.745 148.274 100.745 149.174C100.745 150.074 101.478 150.803 102.382 150.803Z" fill="white"/>
<path opacity="0.731" d="M128.417 186.389C131.128 186.389 133.326 184.201 133.326 181.502C133.326 178.803 131.128 176.615 128.417 176.615C125.706 176.615 123.508 178.803 123.508 181.502C123.508 184.201 125.706 186.389 128.417 186.389Z" stroke="white" stroke-width="0.00580046"/>
<path d="M99.0909 163.967C99.9948 163.967 100.728 163.238 100.728 162.338C100.728 161.438 99.9948 160.709 99.0909 160.709C98.1869 160.709 97.4541 161.438 97.4541 162.338C97.4541 163.238 98.1869 163.967 99.0909 163.967Z" fill="white"/>
<path fill-rule="evenodd" clip-rule="evenodd" d="M190.297 42.7815C192.165 42.7815 193.957 43.5239 195.279 44.8453C196.6 46.1667 197.343 47.9589 197.343 49.8276V61.3514C197.343 71.6072 205.657 79.9213 215.913 79.9213H338.72C356.223 79.9213 370.412 94.11 370.412 111.614C370.412 129.115 356.223 143.304 338.719 143.304H242.249C239.451 143.304 236.768 144.416 234.789 146.394C232.81 148.373 231.699 151.056 231.699 153.854C231.699 156.677 232.793 159.391 234.752 161.424C236.711 163.457 239.381 164.651 242.202 164.756C276.856 166.051 297.208 168.207 303.265 171.227C316.528 177.84 318.739 192.703 322.93 198.439C325.725 202.262 331.327 205.978 339.739 209.585H146.27L152.901 204.677H236.856V198.439L193.364 191.126C175.222 188.076 162.701 171.274 164.968 153.015C167.283 134.358 183.125 120.342 201.926 120.318L308.565 120.176C311.277 120.172 313.876 119.092 315.792 117.174C317.708 115.255 318.784 112.655 318.785 109.943C318.785 107.233 317.708 104.634 315.791 102.717C313.875 100.801 311.276 99.724 308.565 99.724H211.722C195.998 99.724 183.25 86.9766 183.25 71.2527V49.8276C183.25 47.9589 183.993 46.1667 185.314 44.8453C186.636 43.5239 188.428 42.7815 190.297 42.7815ZM201.653 145.73H183.409C181.508 145.73 179.685 146.486 178.341 147.83C176.997 149.174 176.242 150.997 176.242 152.898C176.242 154.799 176.997 156.622 178.341 157.966C179.685 159.31 181.508 160.065 183.409 160.065H201.653C203.554 160.065 205.377 159.31 206.722 157.966C208.066 156.622 208.821 154.799 208.821 152.898C208.821 150.997 208.066 149.174 206.722 147.83C205.377 146.486 203.554 145.73 201.653 145.73Z" fill="url(#paint0_linear)"/>
<path fill-rule="evenodd" clip-rule="evenodd" d="M99.0986 209.525H250.264V235.588H99.0986V209.525Z" fill="#F9D8A0" stroke="#844C22" stroke-width="0.00464037" stroke-linecap="round" stroke-linejoin="round"/>
<path fill-rule="evenodd" clip-rule="evenodd" d="M28.756 146.995H46.0188C46.6546 146.995 47.2684 147.227 47.7448 147.648C48.2213 148.069 48.5274 148.65 48.6056 149.281L57.0826 217.794C57.128 218.16 57.095 218.532 56.9858 218.885C56.8765 219.238 56.6936 219.564 56.449 219.84C56.2044 220.117 55.9038 220.339 55.567 220.491C55.2303 220.642 54.8652 220.721 54.4958 220.721H37.5418C36.9081 220.721 36.2962 220.489 35.8205 220.071C35.3449 219.652 35.0382 219.074 34.9577 218.445L26.1705 149.932C26.1235 149.565 26.1553 149.192 26.2637 148.838C26.3721 148.484 26.5547 148.157 26.7993 147.879C27.044 147.601 27.345 147.379 27.6824 147.226C28.0197 147.074 28.3857 146.995 28.756 146.995Z" fill="white" stroke="#844C22" stroke-width="0.00464037"/>
<path fill-rule="evenodd" clip-rule="evenodd" d="M94.7649 149.739H80.064C79.4414 149.739 78.8393 149.962 78.3667 150.367C77.8942 150.773 77.5824 151.334 77.4877 151.949L67.8652 214.501C67.8081 214.872 67.832 215.251 67.9351 215.613C68.0383 215.974 68.2183 216.308 68.4629 216.594C68.7075 216.879 69.0108 217.108 69.3521 217.265C69.6934 217.422 70.0646 217.503 70.4403 217.503H84.801C85.4211 217.503 86.0208 217.282 86.4926 216.88C86.9643 216.477 87.2771 215.92 87.3747 215.307L97.3386 152.756C97.398 152.384 97.3759 152.003 97.2739 151.64C97.1718 151.277 96.9923 150.941 96.7476 150.654C96.503 150.367 96.199 150.137 95.8567 149.979C95.5144 149.821 95.1419 149.739 94.7649 149.739Z" fill="#F6E7B5" stroke="#844C22" stroke-width="0.00464037"/>
<path fill-rule="evenodd" clip-rule="evenodd" d="M94.1206 149.739H92.4916C91.9521 149.739 91.4258 149.906 90.9853 150.218C90.5449 150.53 90.212 150.97 90.0326 151.479L67.9833 214.03C67.8447 214.423 67.8024 214.844 67.8599 215.256C67.9173 215.669 68.0729 216.062 68.3134 216.402C68.554 216.742 68.8727 217.02 69.2426 217.211C69.6126 217.403 70.0231 217.503 70.4397 217.503H84.1554C84.7754 217.503 85.3752 217.282 85.8469 216.88C86.3186 216.477 86.6314 215.92 86.7291 215.307L96.693 152.756C96.7524 152.384 96.7303 152.003 96.6282 151.64C96.5262 151.277 96.3467 150.941 96.102 150.654C95.8573 150.367 95.5533 150.137 95.211 149.979C94.8687 149.821 94.4962 149.739 94.1193 149.739H94.1206Z" fill="#FBC889"/>
<path fill-rule="evenodd" clip-rule="evenodd" d="M94.7649 149.739H80.064C79.4414 149.739 78.8393 149.962 78.3667 150.367C77.8942 150.773 77.5824 151.334 77.4877 151.949L67.8652 214.501C67.8081 214.872 67.832 215.251 67.9351 215.613C68.0383 215.974 68.2183 216.308 68.4629 216.594C68.7075 216.879 69.0108 217.108 69.3521 217.265C69.6934 217.422 70.0646 217.503 70.4403 217.503H84.801C85.4211 217.503 86.0208 217.282 86.4926 216.88C86.9643 216.477 87.2771 215.92 87.3747 215.307L97.3386 152.756C97.398 152.384 97.3759 152.003 97.2739 151.64C97.1718 151.277 96.9923 150.941 96.7476 150.654C96.503 150.367 96.199 150.137 95.8567 149.979C95.5144 149.821 95.1419 149.739 94.7649 149.739V149.739Z" stroke="#844C22" stroke-width="0.00464037"/>
<path fill-rule="evenodd" clip-rule="evenodd" d="M28.756 146.995H46.0188C46.6546 146.995 47.2684 147.227 47.7448 147.648C48.2213 148.069 48.5274 148.65 48.6056 149.281L57.0826 217.794C57.128 218.16 57.095 218.532 56.9858 218.885C56.8765 219.238 56.6936 219.564 56.449 219.84C56.2044 220.117 55.9038 220.339 55.567 220.491C55.2303 220.642 54.8652 220.721 54.4958 220.721H37.5418C36.9081 220.721 36.2962 220.489 35.8205 220.071C35.3449 219.652 35.0382 219.074 34.9577 218.445L26.1705 149.932C26.1235 149.565 26.1553 149.192 26.2637 148.838C26.3721 148.484 26.5547 148.157 26.7993 147.879C27.044 147.601 27.345 147.379 27.6824 147.226C28.0197 147.074 28.3857 146.995 28.756 146.995Z" fill="white" stroke="#844C22" stroke-width="0.00464037"/>
<path fill-rule="evenodd" clip-rule="evenodd" d="M28.7672 170.452C32.2414 169.583 34.4138 168.279 35.283 166.542C36.5861 163.936 36.9562 162.457 37.8893 158.723C38.7572 155.248 42.6666 154.38 49.6176 156.117L48.3418 149.132C48.2321 148.532 47.9155 147.99 47.4471 147.6C46.9788 147.209 46.3883 146.995 45.7786 146.995H28.7555C28.3856 146.995 28.02 147.074 27.6829 147.226C27.3458 147.378 27.045 147.6 26.8005 147.878C26.5559 148.155 26.3732 148.482 26.2645 148.835C26.1558 149.189 26.1236 149.561 26.17 149.928L28.7672 170.452Z" fill="#F6E7B5" stroke="#844C22" stroke-width="0.00464037" stroke-linecap="round" stroke-linejoin="round"/>
<path fill-rule="evenodd" clip-rule="evenodd" d="M28.756 146.995H46.0188C46.6546 146.995 47.2684 147.227 47.7448 147.648C48.2213 148.069 48.5274 148.65 48.6056 149.281L57.0826 217.794C57.128 218.16 57.095 218.532 56.9858 218.885C56.8765 219.238 56.6936 219.564 56.449 219.84C56.2044 220.117 55.9038 220.339 55.567 220.491C55.2303 220.642 54.8652 220.721 54.4958 220.721H37.5418C36.9081 220.721 36.2962 220.489 35.8205 220.071C35.3449 219.652 35.0382 219.074 34.9577 218.445L26.1705 149.932C26.1235 149.565 26.1553 149.192 26.2637 148.838C26.3721 148.484 26.5547 148.157 26.7993 147.879C27.044 147.601 27.345 147.379 27.6824 147.226C28.0197 147.074 28.3857 146.995 28.756 146.995Z" fill="white" stroke="#844C22" stroke-width="0.00464037"/>
<path fill-rule="evenodd" clip-rule="evenodd" d="M78.7176 167.838H64.0181C63.3938 167.838 62.7903 168.062 62.3173 168.469C61.8443 168.877 61.5331 169.44 61.4404 170.058L52.231 231.306C52.1754 231.676 52.2003 232.055 52.3042 232.415C52.4081 232.775 52.5885 233.109 52.8331 233.393C53.0776 233.677 53.3806 233.905 53.7213 234.061C54.062 234.218 54.4325 234.299 54.8074 234.299H69.099C69.7201 234.299 70.3206 234.077 70.7925 233.673C71.2643 233.269 71.5765 232.71 71.6728 232.097L81.2926 170.849C81.351 170.477 81.3281 170.097 81.2255 169.734C81.1229 169.372 80.9431 169.036 80.6984 168.75C80.4537 168.464 80.1499 168.235 79.808 168.077C79.466 167.92 79.094 167.838 78.7176 167.838Z" fill="#F6E7B5" stroke="#844C22" stroke-width="0.00464037"/>
<path fill-rule="evenodd" clip-rule="evenodd" d="M78.2628 167.838H72.8221C72.2591 167.838 71.7112 168.02 71.2604 168.358C70.8096 168.695 70.4802 169.169 70.3214 169.71L52.3079 230.958C52.1937 231.346 52.1716 231.756 52.2434 232.155C52.3152 232.553 52.4789 232.93 52.7215 233.254C52.964 233.578 53.2789 233.841 53.6409 234.023C54.003 234.204 54.4024 234.299 54.8074 234.299H68.6416C69.2629 234.299 69.8637 234.077 70.3359 233.673C70.808 233.27 71.1204 232.71 71.2167 232.097L80.8365 170.849C80.8949 170.477 80.872 170.097 80.7694 169.734C80.6668 169.372 80.487 169.036 80.2423 168.75C79.9976 168.464 79.6938 168.235 79.3519 168.077C79.0099 167.92 78.6379 167.838 78.2615 167.838H78.2628Z" fill="#FBC889"/>
<path fill-rule="evenodd" clip-rule="evenodd" d="M78.7176 167.838H64.0181C63.3938 167.838 62.7903 168.062 62.3173 168.469C61.8443 168.877 61.5331 169.44 61.4404 170.058L52.231 231.306C52.1754 231.676 52.2003 232.055 52.3042 232.415C52.4081 232.775 52.5885 233.109 52.8331 233.393C53.0776 233.677 53.3806 233.905 53.7213 234.061C54.062 234.218 54.4325 234.299 54.8074 234.299H69.099C69.7201 234.299 70.3206 234.077 70.7925 233.673C71.2643 233.269 71.5765 232.71 71.6728 232.097L81.2926 170.849C81.351 170.477 81.3281 170.097 81.2255 169.734C81.1229 169.372 80.9431 169.036 80.6984 168.75C80.4537 168.464 80.1499 168.235 79.808 168.077C79.466 167.92 79.094 167.838 78.7176 167.838Z" stroke="#844C22" stroke-width="0.00464037"/>
<path fill-rule="evenodd" clip-rule="evenodd" d="M28.756 146.995H46.0188C46.6546 146.995 47.2684 147.227 47.7448 147.648C48.2213 148.069 48.5274 148.65 48.6056 149.281L57.0826 217.794C57.128 218.16 57.095 218.532 56.9858 218.885C56.8765 219.238 56.6936 219.564 56.449 219.84C56.2044 220.117 55.9038 220.339 55.567 220.491C55.2303 220.642 54.8652 220.721 54.4958 220.721H37.5418C36.9081 220.721 36.2962 220.489 35.8205 220.071C35.3449 219.652 35.0382 219.074 34.9577 218.445L26.1705 149.932C26.1235 149.565 26.1553 149.192 26.2637 148.838C26.3721 148.484 26.5547 148.157 26.7993 147.879C27.044 147.601 27.345 147.379 27.6824 147.226C28.0197 147.074 28.3857 146.995 28.756 146.995Z" fill="#F6E7B5" stroke="#844C22" stroke-width="0.00464037"/>
<path fill-rule="evenodd" clip-rule="evenodd" d="M41.7508 147.976L43.8097 147.173C44.1795 147.029 44.5773 146.971 44.9728 147.004C45.3682 147.037 45.7509 147.16 46.0917 147.363C46.4325 147.567 46.7223 147.845 46.9391 148.178C47.1559 148.51 47.2939 148.887 47.3426 149.281L55.6919 216.755C55.7373 217.121 55.7043 217.493 55.5951 217.846C55.4859 218.199 55.3029 218.524 55.0583 218.801C54.8137 219.078 54.5131 219.3 54.1763 219.451C53.8396 219.603 53.4745 219.682 53.1051 219.682H36.7089C36.3469 219.682 35.989 219.606 35.6578 219.46C35.3266 219.314 35.0294 219.101 34.7852 218.834C34.541 218.567 34.3551 218.252 34.2394 217.909C34.1236 217.566 34.0806 217.202 34.113 216.842L40.101 150.171C40.1443 149.688 40.3217 149.226 40.6132 148.839C40.9046 148.451 41.2986 148.152 41.7508 147.976Z" fill="#FBC889"/>
<path d="M20.9385 204.588H99.1276" stroke="white" stroke-width="0.00464037"/>
<path fill-rule="evenodd" clip-rule="evenodd" d="M28.7672 170.452C32.2414 169.583 34.4138 168.279 35.283 166.542C36.5861 163.936 36.9562 162.457 37.8893 158.723C38.7572 155.248 42.664 154.38 49.6059 156.117L48.3405 149.136C48.2315 148.535 47.9149 147.991 47.4459 147.6C46.9769 147.209 46.3854 146.995 45.7746 146.995H28.7555C28.3856 146.995 28.02 147.074 27.6829 147.226C27.3458 147.378 27.045 147.6 26.8005 147.878C26.5559 148.155 26.3732 148.482 26.2645 148.835C26.1558 149.189 26.1236 149.561 26.17 149.928L28.7672 170.452Z" fill="#E8404A" stroke="#844C22" stroke-width="0.00464037" stroke-linecap="round" stroke-linejoin="round"/>
<path fill-rule="evenodd" clip-rule="evenodd" d="M30.1948 171.257C32.8089 170.387 34.5499 169.084 35.4191 167.347C36.7222 164.741 37.0923 163.261 38.0254 159.528C38.8933 156.053 42.8027 155.184 49.7538 156.922L48.7021 152.752C48.6148 152.405 48.457 152.08 48.2386 151.797C48.0203 151.514 47.746 151.279 47.4328 151.106C43.2224 148.785 39.6478 149.42 36.7105 153.013C31.9566 158.825 34.8509 161.066 32.8011 163.438C32.126 164.217 30.8229 164.652 28.8916 164.741L30.1948 171.257Z" fill="#D2000D"/>
<path d="M55.2564 219.947C55.1535 219.959 55.0499 219.965 54.9463 219.965M57.8732 222.553C57.7668 222.566 57.6598 222.572 57.5526 222.572L57.8732 222.553Z" stroke="white" stroke-width="0.00464037"/>
<path opacity="0.969" d="M29.1535 151.573L28.8916 149.739" stroke="white" stroke-width="0.00464037" stroke-linecap="round" stroke-linejoin="round"/>
<path d="M20.9385 204.588H99.1276" stroke="white" stroke-width="0.00464037"/>
<path fill-rule="evenodd" clip-rule="evenodd" d="M15.7275 201.847L16.2227 207.287C16.7467 213.052 19.1749 218.478 23.1242 222.71L35.2748 235.728H80.8851L94.3532 222.26C98.3014 218.312 100.877 213.201 101.702 207.678L102.572 201.847H15.7275Z" stroke="#844C22" stroke-width="0.00464037" stroke-linecap="round" stroke-linejoin="round"/>
<path fill-rule="evenodd" clip-rule="evenodd" d="M81.0899 217.499C61.5427 220.105 45.8345 211.835 35.4796 212.286C28.5768 212.586 23.3642 213.878 19.8418 216.163C20.9726 219.436 22.7888 222.431 25.1691 224.946L35.4796 235.84H81.0899L95.4077 222.469C97.9706 220.075 99.7867 216.991 100.637 213.589C100.637 214.457 94.1214 215.76 81.0899 217.499Z" fill="#D2142A" stroke="#844C22" stroke-width="0.00464037" stroke-linecap="round" stroke-linejoin="round"/>
<path fill-rule="evenodd" clip-rule="evenodd" d="M28.7672 170.452C32.2414 169.583 34.4138 168.279 35.283 166.542C36.5861 163.936 36.9562 162.457 37.8893 158.723C38.7572 155.248 42.664 154.38 49.6059 156.117L48.3405 149.136C48.2315 148.535 47.9149 147.991 47.4459 147.6C46.9769 147.209 46.3854 146.995 45.7746 146.995H28.7555C28.3856 146.995 28.02 147.074 27.6829 147.226C27.3458 147.378 27.045 147.6 26.8005 147.878C26.5559 148.155 26.3732 148.482 26.2645 148.835C26.1558 149.189 26.1236 149.561 26.17 149.928L28.7672 170.452Z" stroke="#844C22" stroke-width="0.00464037" stroke-linecap="round" stroke-linejoin="round"/>
<path opacity="0.698" d="M19.293 206.782C19.293 212.282 21.4119 217.57 25.2093 221.547L36.432 233.303H44.6328" stroke="white" stroke-width="0.00464037" stroke-linecap="round" stroke-linejoin="round"/>
<path fill-rule="evenodd" clip-rule="evenodd" d="M229.641 209.525H359.956V235.588H229.641V209.525Z" fill="#F9D8A0" stroke="#844C22" stroke-width="0.00464037" stroke-linecap="round" stroke-linejoin="round"/>
<path fill-rule="evenodd" clip-rule="evenodd" d="M122.688 198.006H324.676C327.441 198.006 330.093 199.105 332.048 201.06C334.003 203.015 335.102 205.667 335.102 208.432V209.735H112.263V208.432C112.263 205.667 113.361 203.015 115.316 201.06C117.271 199.105 119.923 198.006 122.688 198.006Z" fill="#FFB46B" stroke="#844C22" stroke-width="0.00464037"/>
<path fill-rule="evenodd" clip-rule="evenodd" d="M121.454 199.103H326.048C328.122 199.103 330.111 199.927 331.577 201.393C333.044 202.86 333.867 204.848 333.867 206.922C330.375 206.763 326.894 206.408 323.442 205.856C306.284 203.16 279.874 204.918 266.104 204.316C238.918 203.125 231.949 203.985 216.451 204.316C200.952 204.647 206.288 205.856 193.994 205.856C181.7 205.856 180.369 204.645 167.867 204.316C155.366 203.986 152.619 203.225 136.265 204.316C125.364 205.043 117.82 205.912 113.635 206.922C113.635 204.848 114.459 202.86 115.925 201.393C117.391 199.927 119.38 199.103 121.454 199.103Z" fill="#F6E7B5"/>
<path fill-rule="evenodd" clip-rule="evenodd" d="M163.206 191.424H185.36C187.088 191.424 188.745 192.11 189.967 193.332C191.189 194.554 191.876 196.212 191.876 197.94H156.69C156.69 196.212 157.377 194.554 158.599 193.332C159.821 192.11 161.478 191.424 163.206 191.424ZM275.277 191.424H297.431C299.159 191.424 300.816 192.11 302.038 193.332C303.26 194.554 303.947 196.212 303.947 197.94H268.761C268.761 196.212 269.448 194.554 270.67 193.332C271.892 192.11 273.549 191.424 275.277 191.424ZM230.97 191.424H253.124C254.852 191.424 256.509 192.11 257.731 193.332C258.953 194.554 259.639 196.212 259.639 197.94H224.454C224.454 196.212 225.141 194.554 226.363 193.332C227.585 192.11 229.242 191.424 230.97 191.424Z" fill="#E2475A" stroke="#844C22" stroke-width="0.00464037"/>
<path d="M272.108 55.0077L278.825 55.2423C282.772 55.3805 282.565 61.3007 278.619 61.1625L272.627 60.954C271.702 67.5819 265.893 72.5716 259.057 72.3331L245.646 71.864C244.862 71.8365 244.12 71.4984 243.584 70.9242C243.049 70.3499 242.763 69.5864 242.79 68.8016L243.823 39.2031C243.851 38.4183 244.189 37.6765 244.763 37.1409C245.337 36.6052 246.101 36.3195 246.886 36.3466L269.338 37.1298C269.729 37.1401 270.114 37.2277 270.471 37.3876C270.828 37.5476 271.15 37.7767 271.418 38.0617C271.686 38.3467 271.895 38.6819 272.033 39.0481C272.17 39.4143 272.234 39.8041 272.22 40.1951C272.207 40.5861 272.115 40.9705 271.952 41.326C271.789 41.6816 271.557 42.0014 271.27 42.2668C270.982 42.5323 270.645 42.7381 270.278 42.8726C269.91 43.007 269.52 43.0673 269.129 43.05L249.639 42.3698L249.53 45.513L259.981 45.8779C265.695 46.0772 270.436 49.8694 272.108 55.0077ZM265.411 54.7732C264.758 53.8832 263.911 53.153 262.935 52.6377C261.958 52.1224 260.877 51.8353 259.774 51.7981L249.323 51.4332L248.813 66.0481L259.264 66.4129C260.962 66.472 262.627 65.9386 263.974 64.9043C265.32 63.87 266.266 62.3992 266.647 60.7442L251.98 60.2321L252.186 54.3119L265.411 54.7745V54.7732ZM256.97 87.0783C238.986 86.4502 224.918 71.3636 225.547 53.3827C226.175 35.3992 241.261 21.3317 259.242 21.9598C277.226 22.5879 291.293 37.6745 290.665 55.6554C290.037 73.6389 274.95 87.7064 256.97 87.0783ZM257.175 81.1581C271.888 81.6715 284.231 70.1621 284.745 55.4495C285.258 40.7369 273.749 28.3935 259.036 27.88C244.324 27.3666 231.98 38.876 231.467 53.5886C230.953 68.3012 242.463 80.6447 257.175 81.1581ZM237.18 59.7147C233.234 59.5779 233.44 53.6577 237.387 53.7958L240.345 53.9001L240.139 59.819L237.18 59.7147Z" fill="#6B5653"/>
<mask id="mask3" mask-type="alpha" maskUnits="userSpaceOnUse" x="225" y="21" width="66" height="67">
<path d="M272.049 55.0277L278.765 55.2622C282.711 55.4 282.505 61.3193 278.559 61.1815L272.568 60.9723C271.641 67.6018 265.834 72.5913 258.998 72.3526L245.586 71.8842C244.801 71.8568 244.059 71.5188 243.524 70.9445C242.988 70.3703 242.702 69.6068 242.729 68.8219L243.763 39.2219C243.791 38.437 244.129 37.6953 244.703 37.1598C245.278 36.6243 246.042 36.3389 246.826 36.3663L269.278 37.1503C269.672 37.1558 270.061 37.2399 270.422 37.3977C270.784 37.5556 271.11 37.7839 271.382 38.0694C271.653 38.3548 271.866 38.6917 272.006 39.0602C272.145 39.4287 272.211 39.8215 272.197 40.2155C272.183 40.6094 272.091 40.9967 271.925 41.3546C271.76 41.7124 271.525 42.0337 271.234 42.2995C270.943 42.5653 270.601 42.7703 270.23 42.9026C269.859 43.0348 269.465 43.0916 269.071 43.0695L249.58 42.3889L249.47 45.5328L259.922 45.8978C265.635 46.0973 270.375 49.8891 272.049 55.0277ZM265.351 54.7938C264.698 53.9037 263.851 53.1733 262.875 52.6577C261.899 52.142 260.818 51.8546 259.715 51.817L249.263 51.452L248.753 66.0684L259.204 66.4333C260.902 66.4924 262.567 65.9589 263.914 64.9243C265.261 63.8898 266.206 62.4187 266.587 60.7634L251.92 60.2512L252.127 54.332L265.351 54.7938ZM256.909 87.0977C238.927 86.4697 224.859 71.3834 225.487 53.4017C226.115 35.4201 241.201 21.3518 259.183 21.9798C277.165 22.6077 291.233 37.694 290.605 55.6757C289.977 73.6573 274.891 87.7256 256.909 87.0977ZM257.116 81.1784C271.828 81.6922 284.172 70.1817 284.686 55.469C285.2 40.7562 273.689 28.4128 258.976 27.899C244.264 27.3852 231.92 38.8957 231.406 53.6084C230.892 68.3212 242.403 80.6647 257.116 81.1784ZM237.119 59.7343C233.173 59.5965 233.379 53.6773 237.325 53.8151L240.287 53.9186L240.08 59.8378L237.119 59.7343Z" fill="white"/>
</mask>
<g mask="url(#mask3)">
<path fill-rule="evenodd" clip-rule="evenodd" d="M223.881 17.552L294.918 20.0327L292.437 91.0698L221.4 88.5891L223.881 17.552Z" fill="#FBC889"/>
</g>
<path d="M148.603 48.0004C152.921 48.0004 156.422 44.4997 156.422 40.1815C156.422 35.8632 152.921 32.3625 148.603 32.3625C144.285 32.3625 140.784 35.8632 140.784 40.1815C140.784 44.4997 144.285 48.0004 148.603 48.0004Z" fill="#FBC889"/>
<path d="M4.65673 159.957C7.17572 159.957 9.21776 157.915 9.21776 155.396C9.21776 152.877 7.17572 150.835 4.65673 150.835C2.13775 150.835 0.0957031 152.877 0.0957031 155.396C0.0957031 157.915 2.13775 159.957 4.65673 159.957Z" fill="#FBC889"/>
<path d="M374.89 79.3302C377.409 79.3302 379.451 77.2881 379.451 74.7692C379.451 72.2502 377.409 70.2081 374.89 70.2081C372.371 70.2081 370.329 72.2502 370.329 74.7692C370.329 77.2881 372.371 79.3302 374.89 79.3302Z" fill="#FBC889"/>
<path fill-rule="evenodd" clip-rule="evenodd" d="M110.827 1.09863V7.61439H117.343V12.827H110.827V19.3428H105.614V12.827H99.0986V7.61439H105.614V1.09863H110.827ZM432.705 169.205V175.069H438.57V180.282H432.705V186.146H427.493V180.282H421.629V175.069H427.493V169.205H432.705Z" fill="#FBC889"/>
<path d="M78.0203 87.1564L82.2425 86.3354C84.7237 85.8532 85.447 89.575 82.9658 90.0572L79.1997 90.7896C79.381 92.8747 78.7841 94.9531 77.5239 96.6243C76.2638 98.2954 74.4296 99.4409 72.3751 99.84L63.945 101.478C63.4516 101.574 62.9405 101.47 62.5239 101.189C62.1073 100.908 61.8193 100.473 61.7231 99.9794L58.1055 81.373C58.0095 80.8795 58.1135 80.368 58.3945 79.9511C58.6755 79.5342 59.1107 79.246 59.6042 79.1498L73.7173 76.4067C73.9634 76.3546 74.2175 76.352 74.4646 76.3991C74.7118 76.4462 74.9471 76.542 75.1568 76.6809C75.3666 76.8199 75.5466 76.9991 75.6863 77.2083C75.8261 77.4175 75.9228 77.6524 75.9709 77.8994C76.019 78.1463 76.0174 78.4004 75.9664 78.6467C75.9153 78.8931 75.8157 79.1268 75.6733 79.3343C75.531 79.5417 75.3489 79.7188 75.1374 79.8552C74.926 79.9915 74.6896 80.0844 74.4419 80.1285L62.1883 82.5093L62.5728 84.4862L69.1432 83.2091C70.8491 82.8775 72.6157 83.0783 74.2036 83.7844C75.7915 84.4905 77.1239 85.6676 78.0203 87.1564ZM73.8098 87.9748C73.2744 87.5137 72.6413 87.1801 71.9583 86.999C71.2752 86.818 70.56 86.7943 69.8665 86.9296L63.296 88.2067L65.0813 97.3939L71.6518 96.1169C72.7188 95.9096 73.6805 95.3374 74.3717 94.4985C75.0629 93.6596 75.4407 92.6063 75.4401 91.5193L66.219 93.3125L65.4957 89.5907L73.8098 87.9748ZM73.196 109.335C61.8925 111.532 50.9473 104.149 48.7502 92.8459C46.5531 81.5424 53.9355 70.5972 65.239 68.4001C76.5425 66.203 87.4877 73.5854 89.6848 84.8889C91.8819 96.1924 84.4996 107.138 73.196 109.335ZM72.4728 105.613C81.7213 103.815 87.7614 94.8619 85.963 85.6121C84.1647 76.3637 75.212 70.3236 65.9622 72.1219C56.7138 73.9203 50.6737 82.8729 52.472 92.1227C54.2704 101.371 63.223 107.411 72.4728 105.613ZM56.9158 95.1199C54.4359 95.6021 53.7113 91.8816 56.1925 91.3994L58.0534 91.0372L58.7767 94.759L56.9158 95.1199Z" fill="#6B5653"/>
<mask id="mask4" mask-type="alpha" maskUnits="userSpaceOnUse" x="48" y="68" width="43" height="42">
<path d="M78.0459 87.18L82.2673 86.3595C84.7489 85.8771 85.4725 89.5996 82.9908 90.082L79.2249 90.814C79.4058 92.8987 78.8088 94.9766 77.5489 96.6474C76.289 98.3181 74.4553 99.4634 72.4012 99.8627L63.9712 101.501C63.4778 101.597 62.9665 101.493 62.5497 101.212C62.1329 100.931 61.8447 100.496 61.7484 100.003L58.1315 81.3958C57.9318 80.3686 58.6027 79.3739 59.6312 79.174L73.7434 76.4309C73.9906 76.3761 74.2463 76.3713 74.4953 76.4169C74.7444 76.4625 74.9817 76.5575 75.1935 76.6963C75.4052 76.8351 75.587 77.0149 75.7281 77.2251C75.8692 77.4353 75.9668 77.6717 76.0151 77.9202C76.0635 78.1687 76.0615 78.4244 76.0094 78.6722C75.9573 78.9199 75.8561 79.1548 75.7118 79.3628C75.5675 79.5708 75.383 79.7478 75.1691 79.8834C74.9553 80.0189 74.7165 80.1103 74.4668 80.1521L62.2145 82.5337L62.5987 84.5101L69.1687 83.233C72.7607 82.5348 76.2632 84.217 78.0472 87.1798L78.0459 87.18ZM73.836 87.9983C73.3004 87.5373 72.6672 87.2038 71.984 87.023C71.3009 86.8421 70.5856 86.8186 69.892 86.9542L63.322 88.2313L65.1078 97.4186L71.6779 96.1415C72.7451 95.9345 73.7071 95.3626 74.3987 94.5237C75.0902 93.6849 75.4682 92.6314 75.4678 91.5443L66.2447 93.3371L65.5211 89.6146L73.8347 87.9986L73.836 87.9983ZM73.2221 109.358C61.9177 111.556 50.9736 104.174 48.7763 92.8694C46.579 81.5651 53.9608 70.621 65.2652 68.4237C76.5696 66.2263 87.5136 73.6082 89.711 84.9125C91.9083 96.2169 84.5265 107.161 73.2221 109.358ZM72.4985 105.636C81.7472 103.838 87.7862 94.8848 85.9885 85.6361C84.1907 76.3874 75.2375 70.3484 65.9888 72.1461C56.7401 73.9439 50.701 82.8972 52.4988 92.1459C54.2966 101.395 63.2498 107.434 72.4985 105.636ZM56.9423 95.1453C54.4607 95.6277 53.7371 91.9052 56.2187 91.4228L58.08 91.061L58.8036 94.7835L56.9423 95.1453Z" fill="white"/>
</mask>
<g mask="url(#mask4)">
<path fill-rule="evenodd" clip-rule="evenodd" d="M42.6025 70.7559L87.2597 62.0754L95.9402 106.733L51.283 115.413L42.6025 70.7559Z" fill="#FBC889"/>
</g>
<path d="M351.689 11.3887L353.69 11.6337C354.865 11.7783 354.649 13.5428 353.473 13.3981L351.688 13.1792C351.467 14.1348 350.9 14.9746 350.096 15.537C349.292 16.0993 348.309 16.3443 347.335 16.2247L343.339 15.7347C343.105 15.7057 342.892 15.5851 342.747 15.3994C342.602 15.2137 342.537 14.9781 342.566 14.7443L343.648 5.92585C343.662 5.80999 343.699 5.69806 343.756 5.59645C343.813 5.49484 343.89 5.40555 343.982 5.33367C344.074 5.26179 344.18 5.20873 344.292 5.17752C344.405 5.14631 344.522 5.13756 344.638 5.15178L351.327 5.97276C351.561 6.00145 351.774 6.12191 351.919 6.30765C352.064 6.49338 352.13 6.72918 352.101 6.96316C352.072 7.19714 351.952 7.41015 351.766 7.55531C351.58 7.70048 351.345 7.76592 351.111 7.73723L345.304 7.02441L345.189 7.96007L348.304 8.3432C349.112 8.44267 349.87 8.78818 350.475 9.33292C351.081 9.87767 351.504 10.5953 351.688 11.3887H351.689ZM349.693 11.1437C349.521 10.8605 349.287 10.62 349.009 10.4403C348.73 10.2606 348.415 10.1464 348.086 10.1064L344.972 9.72454L344.437 14.0784L347.552 14.4615C348.613 14.5918 349.59 13.9402 349.907 12.9603L345.536 12.4234L345.752 10.6602L349.693 11.1424V11.1437ZM346.325 20.5772C345.047 20.4268 343.81 20.0252 342.687 19.3954C341.564 18.7656 340.576 17.92 339.781 16.9074C338.985 15.8947 338.398 14.7348 338.052 13.4944C337.706 12.2539 337.609 10.9574 337.766 9.67934C337.923 8.40125 338.331 7.16676 338.967 6.04682C339.602 4.92688 340.453 3.94356 341.469 3.15337C342.486 2.36318 343.649 1.7817 344.891 1.44233C346.133 1.10296 347.43 1.01241 348.708 1.17586C351.27 1.5038 353.599 2.83301 355.184 4.87287C356.769 6.91274 357.483 9.49731 357.168 12.0615C356.853 14.6258 355.536 16.961 353.504 18.5568C351.472 20.1525 348.891 20.8789 346.325 20.5772ZM346.542 18.8127C347.589 18.9506 348.653 18.8798 349.672 18.6044C350.691 18.3289 351.646 17.8542 352.481 17.2078C353.316 16.5614 354.015 15.756 354.537 14.8381C355.059 13.9202 355.394 12.9079 355.523 11.8599C355.651 10.8118 355.571 9.74857 355.287 8.73162C355.002 7.71467 354.519 6.76412 353.866 5.93483C353.212 5.10555 352.4 4.41397 351.478 3.9C350.556 3.38604 349.54 3.05987 348.491 2.94033C346.396 2.70163 344.292 3.3001 342.636 4.60547C340.98 5.91083 339.907 7.81743 339.65 9.91027C339.393 12.0031 339.973 14.1128 341.263 15.7801C342.554 17.4474 344.451 18.5373 346.542 18.8127ZM341.126 11.8826C339.95 11.7379 340.167 9.97344 341.344 10.1181L342.224 10.2263L342.008 11.9907L341.126 11.8826Z" fill="#6B5653"/>
<mask id="mask5" mask-type="alpha" maskUnits="userSpaceOnUse" x="337" y="1" width="21" height="20">
<path d="M351.747 11.4042L353.748 11.6499C354.923 11.7943 354.707 13.5585 353.531 13.4142L351.746 13.195C351.525 14.1508 350.958 14.9909 350.154 15.5534C349.35 16.1158 348.366 16.3607 347.393 16.2408L343.396 15.7501C343.162 15.7211 342.95 15.6005 342.805 15.4148C342.66 15.2291 342.595 14.9936 342.623 14.7598L343.706 5.94117C343.766 5.45354 344.209 5.10748 344.697 5.16735L351.385 5.98858C351.619 6.01731 351.832 6.13779 351.977 6.32354C352.122 6.50928 352.188 6.74506 352.159 6.97902C352.13 7.21297 352.01 7.42593 351.824 7.57105C351.638 7.71617 351.402 7.78156 351.168 7.75283L345.361 7.03975L345.246 7.9762L348.36 8.35863C350.063 8.56763 351.38 9.82439 351.747 11.4042ZM349.751 11.1592C349.579 10.8759 349.345 10.6353 349.067 10.4556C348.788 10.2759 348.473 10.1617 348.144 10.1216L345.031 9.73932L344.496 14.0943L347.609 14.4766C348.67 14.6068 349.648 13.9562 349.964 12.9762L345.593 12.4395L345.81 10.6753L349.751 11.1592ZM346.383 20.5927C343.81 20.2768 341.468 18.9518 339.872 16.9091C338.277 14.8665 337.557 12.2736 337.873 9.70079C338.189 7.12798 339.514 4.78604 341.557 3.19016C343.6 1.59429 346.192 0.875206 348.765 1.19111C351.338 1.50701 353.68 2.83202 355.276 4.87464C356.872 6.91727 357.591 9.51019 357.275 12.083C356.959 14.6558 355.634 16.9978 353.591 18.5936C351.549 20.1895 348.956 20.9086 346.383 20.5927ZM346.6 18.8284C347.642 18.9564 348.699 18.8778 349.711 18.5972C350.723 18.3166 351.67 17.8394 352.497 17.1929C353.325 16.5465 354.017 15.7433 354.534 14.8294C355.051 13.9154 355.383 12.9086 355.511 11.8664C355.639 10.8241 355.56 9.7669 355.279 8.75502C354.999 7.74314 354.522 6.79644 353.875 5.96898C353.229 5.14151 352.426 4.44949 351.512 3.93241C350.598 3.41533 349.591 3.08333 348.549 2.95536C346.444 2.69691 344.322 3.28521 342.651 4.59085C340.98 5.89649 339.896 7.81251 339.638 9.91741C339.379 12.0223 339.967 14.1437 341.273 15.8148C342.579 17.4859 344.495 18.57 346.6 18.8284ZM341.184 11.8981C340.008 11.7538 340.225 9.98951 341.401 10.1339L342.283 10.2422L342.066 12.0064L341.184 11.8981Z" fill="white"/>
</mask>
<g mask="url(#mask5)">
<path fill-rule="evenodd" clip-rule="evenodd" d="M333.652 5.09622L353.282 -3.23598L361.614 16.394L341.984 24.7262L333.652 5.09622Z" fill="#FBC889"/>
</g>
<defs>
<filter id="filter0_f" x="-2.68465" y="227.587" width="106.935" height="9.73536" filterUnits="userSpaceOnUse" color-interpolation-filters="sRGB">
<feFlood flood-opacity="0" result="BackgroundImageFix"/>
<feBlend mode="normal" in="SourceGraphic" in2="BackgroundImageFix" result="shape"/>
<feGaussianBlur stdDeviation="0.0190846" result="effect1_foregroundBlur"/>
</filter>
<filter id="filter1_f" x="171.941" y="214.351" width="257.886" height="23.9104" filterUnits="userSpaceOnUse" color-interpolation-filters="sRGB">
<feFlood flood-opacity="0" result="BackgroundImageFix"/>
<feBlend mode="normal" in="SourceGraphic" in2="BackgroundImageFix" result="shape"/>
<feGaussianBlur stdDeviation="0.0541204" result="effect1_foregroundBlur"/>
</filter>
<filter id="filter2_f" x="38.4435" y="206.184" width="133.786" height="14.5239" filterUnits="userSpaceOnUse" color-interpolation-filters="sRGB">
<feFlood flood-opacity="0" result="BackgroundImageFix"/>
<feBlend mode="normal" in="SourceGraphic" in2="BackgroundImageFix" result="shape"/>
<feGaussianBlur stdDeviation="0.0238557" result="effect1_foregroundBlur"/>
</filter>
<linearGradient id="paint0_linear" x1="258.341" y1="42.7815" x2="258.341" y2="209.585" gradientUnits="userSpaceOnUse">
<stop stop-color="#DADADA" stop-opacity="0"/>
<stop offset="1" stop-color="white"/>
</linearGradient>
</defs>
</svg>
